# xmcd
# 
# Track frame offsets:
#     150
#     22741
#     56894
#     78882
#     101667
#     131724
#     155011
#     177719
#     202207
#     237397
#     256670
#     288886
# 
# Disc length: 3975
# 
# Revision: 0
# Processed by: cddbd v1.5.2PL0 Copyright (c) Steve Scherf et al.
# Submitted via: BonkEnc v1.0.8
# 
DISCID=a80f850c
DTITLE=Ryuei and The Bluesion - BLUESION
DYEAR=2009
DGENRE=Blues
TTITLE0=J's Funk
TTITLE1=Sunday Morning(after a dream)
TTITLE2=Concentration
TTITLE3=We Call for A.C
TTITLE4=BLUESION
TTITLE5=Wishing
TTITLE6=Easy Work
TTITLE7=Go Ahead!
TTITLE8=246 Blues
TTITLE9=Django's Bar
TTITLE10=Best Friend
TTITLE11=kimi no te(bounus track)
EXTD=
EXTT0=
EXTT1=
EXTT2=
EXTT3=
EXTT4=
EXTT5=
EXTT6=
EXTT7=
EXTT8=
EXTT9=
EXTT10=
EXTT11=
PLAYORDER=
